<?xml version="1.0" encoding="UTF-8"?>
<!DOCTYPE svg PUBLIC "-//W3C//DTD SVG 1.1//EN" "http://www.w3.org/Graphics/SVG/1.1/DTD/svg11.dtd">
<!-- Creator: CorelDRAW (Evaluation Version) -->
<svg xmlns="http://www.w3.org/2000/svg" xml:space="preserve" width="210mm" height="210mm" version="1.1" style="shape-rendering:geometricPrecision; text-rendering:geometricPrecision; image-rendering:optimizeQuality; fill-rule:evenodd; clip-rule:evenodd"
viewBox="0 0 21000 21000"
 xmlns:xlink="http://www.w3.org/1999/xlink"
 xmlns:xodm="http://www.corel.com/coreldraw/odm/2003">
 <defs>
  <style type="text/css">
   <![CDATA[
    .fil0 {fill:none}
    .fil1 {fill:#3E2D44}
    .fil4 {fill:#ED3237}
    .fil2 {fill:#FFF212}
    .fil5 {fill:yellow}
    .fil3 {fill:#3E2D44;fill-rule:nonzero}
   ]]>
  </style>
 </defs>
 <g id="Layer_x0020_1">
  <metadata id="CorelCorpID_0Corel-Layer"/>
  <rect class="fil0" x="-7.13" y="7.13" width="21000" height="21000"/>
  <g id="_2450708020656">
   <path class="fil1" d="M10021.21 16754.64l0 -6642.08 -185.98 0c-206.53,735.21 -884.71,1278.33 -1683.61,1278.33 -476,0 -909.16,-192.82 -1225.23,-504.19l-966.39 966.39 -1027.89 -1027.9c-320.04,347.29 -778.1,565.7 -1284.71,565.7 -798.89,0 -1477.09,-543.12 -1683.61,-1278.33l-65 0 0 8122.42 2320.69 0 0 -3481.03 1160.35 1160.35 1160.35 0 1160.35 -1160.35 0 2000.69 2320.68 0z"/>
   <path class="fil1" d="M10836.3 13313.23l0 3683.37 -3135.42 14.48 0 1175.23 10097.5 0 1160.34 -1160.35 0 -2320.68 -580.18 -580.18 580.18 -580.18 0 -2320.69 -460.16 -460.16c-321.33,382.59 -802.78,626.82 -1338.49,626.82 -816.42,0 -1506.8,-567.21 -1696.54,-1327l-1111.17 0c-189.73,759.77 -880.1,1327 -1696.51,1327 -816.42,0 -1506.81,-567.21 -1696.54,-1327l-123.01 0 0 2957.99 3254.32 0 0 -1262.14 2109.26 0 0 1785.18 -2109.26 0 0 -231.69 -3254.32 0zm3254.32 3712.73l0 -2320.68 2109.26 0 0 2320.68 -2109.26 0z"/>
   <polygon class="fil2" points="7227.85,2933.53 10130.09,2933.53 10033.35,8338.34 6357.19,8338.34 "/>
   <path class="fil3" d="M7227.85 2779.29l3058.69 0 -102.26 5713.29 -4007.64 0c306.68,-1904.45 613.38,-3808.88 920.36,-5713.29l130.85 0zm2745.8 308.48l-2614.92 0 -820.97 5096.33 3344.67 0 91.22 -5096.33z"/>
   <polygon class="fil4" points="10855.63,2933.53 13757.87,2933.53 14628.53,8338.34 10952.37,8338.34 "/>
   <path class="fil3" d="M10855.63 2779.29l3033.1 0c306.97,1904.41 613.68,3808.84 920.36,5713.29l-4007.64 0 -102.27 -5713.29 156.45 0zm2771.37 308.48l-2614.92 0 91.22 5096.33 3344.66 0 -820.96 -5096.33z"/>
   <polygon class="fil5" points="14483.42,2933.53 17385.65,2933.53 19223.71,8338.34 15547.57,8338.34 "/>
   <path class="fil3" d="M14483.42 2779.29l3012.37 0.02c647.86,1904.35 1295.34,3808.84 1942.98,5713.27l-4017.88 0 -1124.89 -5713.27 187.42 -0.02zm2792.08 308.48l-2604.66 0 1003.4 5096.33 3334.41 0 -1733.15 -5096.33z"/>
   <polygon class="fil4" points="3600.08,2933.53 6502.3,2933.53 5438.16,8338.34 1762.01,8338.34 "/>
   <path class="fil3" d="M3600.08 2779.29l3089.64 0.02 -1124.88 5713.27 -4017.89 0c647.65,-1904.43 1295.12,-3808.92 1942.98,-5713.27l110.15 -0.02zm2714.8 308.48l-2604.66 0 -1733.15 5096.33 3334.41 0 1003.4 -5096.33z"/>
   <path class="fil4" d="M5395.54 8758.18l0 883.81c0,961.44 -786.66,1748.13 -1748.14,1748.13l0 0c-961.48,0 -1748.14,-786.68 -1748.14,-1748.13l0 -883.81 3496.28 0z"/>
   <path class="fil3" d="M5549.78 8758.19l0 883.8c0,523.28 -213.99,998.94 -558.7,1343.66 -344.73,344.71 -820.37,558.71 -1343.68,558.71 -523.31,0 -998.95,-214 -1343.67,-558.71 -344.72,-344.72 -558.71,-820.38 -558.71,-1343.66l0 -1038.05 3804.76 0 0 154.25zm-308.48 883.8l0 -729.56 -3187.8 0 0 729.56c0,438.15 179.37,836.61 468.32,1125.56 288.96,288.94 687.43,468.32 1125.58,468.32 438.15,0 836.62,-179.38 1125.58,-468.32 288.95,-288.95 468.32,-687.41 468.32,-1125.56z"/>
   <path class="fil5" d="M9899.77 8758.18l0 883.81c0,961.44 -786.66,1748.13 -1748.15,1748.13l0 0c-961.48,0 -1748.14,-786.68 -1748.14,-1748.13l0 -883.81 3496.29 0z"/>
   <path class="fil3" d="M10054.01 8758.19l0 883.8c0,523.28 -214,998.94 -558.71,1343.66 -344.73,344.71 -820.37,558.71 -1343.68,558.71 -523.31,0 -998.94,-214 -1343.67,-558.71 -344.72,-344.72 -558.71,-820.38 -558.71,-1343.66l0 -1038.05 3804.77 0 0 154.25zm-308.49 883.8l0 -729.56 -3187.8 0 0 729.56c0,438.15 179.37,836.61 468.33,1125.56 288.95,288.94 687.42,468.32 1125.57,468.32 438.16,0 836.62,-179.38 1125.58,-468.32 288.96,-288.95 468.32,-687.41 468.32,-1125.56z"/>
   <path class="fil4" d="M14403.99 8758.18l0 883.81c0,961.44 -786.66,1748.13 -1748.14,1748.13l0 0c-961.49,0 -1748.15,-786.68 -1748.15,-1748.13l0 -883.81 3496.29 0z"/>
   <path class="fil3" d="M14558.23 8758.19l0 883.8c0,523.28 -214,998.94 -558.71,1343.66 -344.73,344.71 -820.36,558.71 -1343.67,558.71 -523.32,0 -998.95,-214 -1343.68,-558.71 -344.71,-344.72 -558.71,-820.38 -558.71,-1343.66l0 -1038.05 3804.77 0 0 154.25zm-308.48 883.8l0 -729.56 -3187.81 0 0 729.56c0,438.15 179.37,836.61 468.33,1125.56 288.95,288.94 687.42,468.32 1125.58,468.32 438.15,0 836.62,-179.38 1125.57,-468.32 288.96,-288.95 468.33,-687.41 468.33,-1125.56z"/>
   <path class="fil5" d="M18908.21 8758.18l0 883.81c0,961.44 -786.66,1748.13 -1748.14,1748.13l0 0c-961.49,0 -1748.14,-786.68 -1748.14,-1748.13l0 -883.81 3496.28 0z"/>
   <path class="fil3" d="M19062.45 8758.19l0 883.8c0,523.28 -213.99,998.94 -558.71,1343.66 -344.73,344.71 -820.36,558.71 -1343.67,558.71 -523.31,0 -998.95,-214 -1343.68,-558.71 -344.71,-344.72 -558.71,-820.38 -558.71,-1343.66l0 -1038.05 3804.77 0 0 154.25zm-308.48 883.8l0 -729.56 -3187.8 0 0 729.56c0,438.15 179.36,836.61 468.32,1125.56 288.96,288.94 687.42,468.32 1125.58,468.32 438.15,0 836.62,-179.38 1125.57,-468.32 288.96,-288.95 468.33,-687.41 468.33,-1125.56z"/>
  </g>
 </g>
</svg>
