<?xml version="1.0" encoding="UTF-8"?>
<!DOCTYPE svg PUBLIC "-//W3C//DTD SVG 1.1//EN" "http://www.w3.org/Graphics/SVG/1.1/DTD/svg11.dtd">
<!-- Creator: CorelDRAW Standard 2024 (Evaluation Version) -->
<svg xmlns="http://www.w3.org/2000/svg" xml:space="preserve" width="203.2mm" height="203.2mm" version="1.1" style="shape-rendering:geometricPrecision; text-rendering:geometricPrecision; image-rendering:optimizeQuality; fill-rule:evenodd; clip-rule:evenodd"
viewBox="0 0 20319.98 20320"
 xmlns:xlink="http://www.w3.org/1999/xlink"
 xmlns:xodm="http://www.corel.com/coreldraw/odm/2003">
 <defs>
  <style type="text/css">
   <![CDATA[
    .str0 {stroke:#353535;stroke-width:200;stroke-miterlimit:22.9256}
    .fil0 {fill:#353535}
    .fil2 {fill:#6B6B6B}
    .fil1 {fill:#DDDDDD}
   ]]>
  </style>
 </defs>
 <g id="Layer_x0020_1">
  <metadata id="CorelCorpID_0Corel-Layer"/>
  <g id="_2185402514928">
   <path class="fil0" d="M9669.72 16573.98l0 -6904.29 -193.33 0c-214.68,764.23 -919.64,1328.79 -1750.07,1328.79 -494.8,0 -945.06,-200.43 -1273.61,-524.09l-1004.53 1004.54 -1068.48 -1068.48c-332.67,361 -808.82,588.03 -1335.42,588.03 -830.44,0 -1535.41,-564.56 -1750.08,-1328.79l-67.56 0 0 8443.08 2412.3 0 0 -3618.46 1206.15 1206.16 1206.17 0 1206.15 -1206.16 0 2079.67 2412.31 0z"/>
   <path class="fil0" d="M10516.99 12996.71l0 3828.78 -3259.21 15.06 0 1221.62 10496.13 0 1206.16 -1206.15 0 -2412.31 -603.09 -603.08 603.09 -603.08 0 -2412.31 -478.33 -478.33c-334.02,397.7 -834.48,651.57 -1391.34,651.57 -848.64,0 -1566.28,-589.6 -1763.51,-1379.39l-1155.04 0c-197.22,789.77 -914.84,1379.39 -1763.49,1379.39 -848.65,0 -1566.29,-589.6 -1763.51,-1379.39l-127.86 0 0 3074.77 3382.78 0 0 -1311.97 2192.54 0 0 1855.66 -2192.54 0 0 -240.84 -3382.78 0zm3382.78 3859.31l0 -2412.31 2192.54 0 0 2412.31 -2192.54 0z"/>
   <polygon class="fil1 str0" points="6766.08,2207.24 9782.9,2207.24 9682.34,7825.42 5861.05,7825.42 "/>
   <polygon class="fil2 str0" points="10537.08,2207.24 13553.89,2207.24 14458.93,7825.42 10637.64,7825.42 "/>
   <polygon class="fil1 str0" points="14308.09,2207.24 17324.89,2207.24 19235.51,7825.42 15414.24,7825.42 "/>
   <polygon class="fil2 str0" points="2995.09,2207.24 6011.89,2207.24 4905.73,7825.42 1084.46,7825.42 "/>
   <path class="fil2 str0" d="M4861.43 8261.84l0 918.7c0,999.39 -817.72,1817.14 -1817.15,1817.14l0 0c-999.44,0 -1817.16,-817.74 -1817.16,-1817.14l0 -918.7 3634.31 0z"/>
   <path class="fil1 str0" d="M9543.47 8261.84l0 918.7c0,999.39 -817.71,1817.14 -1817.15,1817.14l0 0c-999.44,0 -1817.16,-817.74 -1817.16,-1817.14l0 -918.7 3634.31 0z"/>
   <path class="fil2 str0" d="M14225.52 8261.84l0 918.7c0,999.39 -817.72,1817.14 -1817.16,1817.14l0 0c-999.44,0 -1817.16,-817.74 -1817.16,-1817.14l0 -918.7 3634.32 0z"/>
   <path class="fil1 str0" d="M18907.56 8261.84l0 918.7c0,999.39 -817.72,1817.14 -1817.16,1817.14l0 0c-999.44,0 -1817.15,-817.74 -1817.15,-1817.14l0 -918.7 3634.31 0z"/>
  </g>
 </g>
</svg>
